PathFileType	4	(X/Y/Z)	24_1_51_p1_0-316.trc
DataRate	CameraRate	NumFrames	NumMarkers	Units	OrigDataRate	OrigDataStartFrame	OrigNumFrames
59.0	59.0	5	27	m	59.0	158	317
Frame#	Time	RHip			RKnee			RAnkle			RBigToe			RSmallToe			RHeel			LHip			LKnee			LAnkle			LBigToe			LSmallToe			LHeel			Neck			Head			Nose			RShoulder			RElbow			RWrist			RThumb			RIndex			RPinky			LShoulder			LElbow			LWrist			LThumb			LIndex			LPinky			
		X1	Y1	Z1	X2	Y2	Z2	X3	Y3	Z3	X4	Y4	Z4	X5	Y5	Z5	X6	Y6	Z6	X7	Y7	Z7	X8	Y8	Z8	X9	Y9	Z9	X10	Y10	Z10	X11	Y11	Z11	X12	Y12	Z12	X13	Y13	Z13	X14	Y14	Z14	X15	Y15	Z15	X16	Y16	Z16	X17	Y17	Z17	X18	Y18	Z18	X19	Y19	Z19	X20	Y20	Z20	X21	Y21	Z21	X22	Y22	Z22	X23	Y23	Z23	X24	Y24	Z24	X25	Y25	Z25	X26	Y26	Z26	X27	Y27	Z27	
158	2.6779661016949152	0.4498066876474414	0.41505791077386894	0.7734977718219177	0.43844041506879433	0.5981282675820273	1.260956949772799	0.4276837604983912	0.6712335750176448	1.6948486239322944	0.41614351385441756	0.561702778829046	1.730770443572592	0.4755321807674007	0.5634209084156284	1.7165166825088631	0.4114187654740148	0.7035704252113377	1.7341298596146162	0.2431065855781473	0.4358896734408879	0.7776603147887055	0.20929414876853336	0.5780389263434514	1.261597747146446	0.20149323281945264	0.6616959350077677	1.7006824166942875	0.25411983047002534	0.5194041887769306	1.7249271836867386	0.191012202334135	0.5235425437726904	1.7177166830862514	0.20082651513526142	0.6959137688776537	1.7485124309892728	0.33853378397033884	0.41863843797408573	0.25752317984357487	0.34777369162991584	0.3686297450824672	0.036128610862519506	0.3490615292204363	0.3445601255562456	0.16568995600145653	0.46992979711598504	0.4297018594764132	0.32312087741868467	0.5792942019152184	0.2734774447286904	0.43203325611239257	0.49262726357224307	0.2741996392768769	0.26374630370291036	0.4470558155045914	0.34298116113256033	0.19131566485155702	0.45858379861295867	0.3334449807232662	0.16275582216948484	0.4897566272931257	0.28405965482425033	0.19275733266184006	0.19380141434125397	0.45246368116170077	0.30802849530808557	0.12481320474814281	0.2589869828074281	0.4370783690867982	0.2211302545029935	0.2817976404939208	0.26947964417332737	0.2562074492003768	0.33087193496638273	0.19277005629511568	0.2565111630115959	0.30504833767317024	0.17418626382633207	0.23272424487200563	0.24706165521422696	0.18964906016892816
159	2.694915254237288	0.4448035319127304	0.42795388747449764	0.7759088182573285	0.43845161425092094	0.598107590453109	1.2609864449788812	0.42757625142420913	0.6708858394479833	1.6949726246535757	0.4162459380276147	0.5614660479007174	1.7310097086282563	0.4756226354917343	0.5631705986919157	1.7167673185230443	0.41120942482421435	0.7025815349343372	1.7347528290034329	0.24311335831119302	0.43592013635127624	0.7776530947029336	0.2093415367309161	0.5781291679924858	1.261615610299896	0.2008834519149624	0.6610149647878525	1.7090708091876805	0.25847569900682427	0.5245271208720315	1.7317216484736162	0.19513389505358902	0.5249671152548103	1.7181781125470499	0.20074368611274226	0.6958365777277654	1.748652681793927	0.33873570623936455	0.4196512735029922	0.2581224101366226	0.3526937658519519	0.356752840774798	0.036870399297167795	0.3491868299804319	0.3445105072651321	0.1658690913721034	0.466202738907157	0.42768163703371675	0.3232043531455884	0.5753005300150064	0.27268660942943024	0.4356390937595668	0.4925357874391771	0.2742247582048376	0.2638424166863025	0.4448532386182561	0.33419520717893486	0.19234849978044652	0.4588474103845929	0.332880852306672	0.1662679234842544	0.48990574697556205	0.28441267553995225	0.19675803465440156	0.1925279311008828	0.44239981859943706	0.31097289134081113	0.12482009176149882	0.2592844906668954	0.43726879172848937	0.22665649271102345	0.2713532271181657	0.2693279433486218	0.25618228993995945	0.3309195701243634	0.19309223503510448	0.2579820407090903	0.31010742771989874	0.1673090234948536	0.23775813312302002	0.23773805349177632	0.18981957570768465
160	2.711864406779661	0.4448392564889714	0.4280032397747709	0.7759621676165193	0.43914271878256705	0.6006481717566299	1.2660656909281953	0.42819639664501796	0.6694836610544943	1.698503223382976	0.4163283175349907	0.5618208118706338	1.7313136218817593	0.47824387611879404	0.5778486574746428	1.7233478153519781	0.4113524942893008	0.7022820907188888	1.7349511545216503	0.2434142333454128	0.43514198791835923	0.7811294676698805	0.20990162514878785	0.5769488453358838	1.2656184370092767	0.20095675727092888	0.6609713345830203	1.70903187980222	0.2587644946848029	0.5242948167732828	1.7316053430300844	0.1950896298995269	0.5251398584846024	1.7182868680830599	0.19755959424794278	0.6965033092478463	1.7540783024552347	0.33902715898134395	0.4189195850415898	0.2615715934834965	0.35264320622940915	0.3568756681892797	0.03701412081157898	0.3512415434713209	0.3558523687037841	0.16542762412226056	0.46579305571860613	0.42810979121544807	0.3198698475420934	0.5757972804735024	0.273244580775583	0.44263500236624553	0.49124125743097324	0.28291985575440887	0.2675362355360849	0.4458525543726761	0.3349768162776174	0.19554217489717837	0.4696129550758337	0.3335137981340783	0.16977152712868712	0.4923077378727493	0.2929232581195473	0.19707626800498793	0.19239559568033374	0.44235839986915493	0.31096657552796575	0.1305918182992432	0.25085212129484263	0.44041153132462135	0.22686055817221362	0.27130302452742966	0.27272351149468693	0.2563224688307738	0.33085483523831916	0.19298736132425975	0.26266226459600744	0.3164886999243753	0.1804053482575752	0.23294321006466054	0.2472800525864115	0.18979717827539316
161	2.7288135593220337	0.4498106523441187	0.4151062071732222	0.7735332940426803	0.4391398218620049	0.6007341932548246	1.266124347926338	0.4281508276624052	0.6694664410969082	1.698560466620027	0.4161877683003767	0.5618228793487773	1.731271791339198	0.47800449103820386	0.5778745377166151	1.7234459935669397	0.41131343438979856	0.7023663248627937	1.7348759552125437	0.24342198710806764	0.43485120897831975	0.7810285631171949	0.20991222445873117	0.5770937675127866	1.2657199119619167	0.200947977965788	0.6610701870146682	1.7090633760927372	0.2586265685339202	0.5243536746973115	1.7316375703535842	0.1953047060133633	0.5252354802511415	1.7185043544368315	0.19688010648601142	0.6939552768991659	1.747783723977701	0.338892760174949	0.4191176562953076	0.26479567189147724	0.3498140902879265	0.3799866784998546	0.03806652360556174	0.3511654751086545	0.35621886278397935	0.16871794580921562	0.4661020182776124	0.4279529232728599	0.32332248222771354	0.5712952710252309	0.28517955892459446	0.4441077535569837	0.4885771643044139	0.27246150226485544	0.2716901593891723	0.44672102302559696	0.3364346784384447	0.20003402175266968	0.4702034486736438	0.3345190215459473	0.17973077059659523	0.4920862782432535	0.2934244118514585	0.19991753998004816	0.19388986842102993	0.4536651027925057	0.31124071714485263	0.13172641199483398	0.26306167261841407	0.4447056390588944	0.22187854728157597	0.28124869956322834	0.27662783077309966	0.2565290981810623	0.3304407448490765	0.19282289470318953	0.2681936109115555	0.30581211031864175	0.18616624110529054	0.2338140707012751	0.24599679547941164	0.19486878809401753
162	2.7457627118644066	0.4498290579395657	0.4148747564925002	0.7735060721974267	0.4446623192366239	0.5858383860763627	1.2608167045524195	0.42755960638022006	0.6707014973190947	1.6951554127868234	0.4162368795631643	0.5617346402651884	1.7312491346934442	0.47812812814853567	0.577763102198814	1.7232774912319997	0.4111995372748834	0.7019580197105807	1.7349509748852634	0.24935173174797495	0.4222571284845295	0.7784718265346888	0.20987932869264675	0.5769971203077846	1.2656676622813063	0.20088851685183207	0.6612205735818598	1.7091024124997618	0.2590889709829587	0.524572167603832	1.7317931247028164	0.19499775189279384	0.5254397240675165	1.718398821325441	0.1967877610066464	0.6940892215786191	1.7477379366225825	0.34445900981111915	0.4072740433816239	0.2615409656904139	0.3499102267383408	0.380291554189024	0.038051748879259266	0.3545314799237609	0.35822444366646317	0.1651749488331158	0.4662471283129105	0.4280065929843794	0.3234405039441426	0.5651616820668462	0.27450344169664287	0.4544056335947096	0.4834623969448825	0.2519774941579205	0.2725204214996415	0.4452694483853438	0.33045512442165204	0.20330490325364306	0.4685220693070006	0.30914279760657054	0.18511216478993003	0.4817005361591978	0.25326526007333067	0.20865247672799864	0.1938703224266377	0.45218573974205767	0.3081600674788901	0.1358209446873333	0.2650605586149642	0.4482288526915101	0.2271782956500131	0.27095537020165805	0.27990486052186075	0.271385532116101	0.3117170157098313	0.20251708177937663	0.2833227274322553	0.2846889304004324	0.18699272284182128	0.2526297887449231	0.21949459930294637	0.1999135528489414
